<?xml version="1.0" encoding="utf-8"?>
<!-- Generator: Adobe Illustrator 16.0.0, SVG Export Plug-In . SVG Version: 6.00 Build 0)  -->
<!DOCTYPE svg PUBLIC "-//W3C//DTD SVG 1.1//EN" "http://www.w3.org/Graphics/SVG/1.1/DTD/svg11.dtd">
<svg version="1.1" id="Warstwa_1" xmlns="http://www.w3.org/2000/svg" xmlns:xlink="http://www.w3.org/1999/xlink" x="0px" y="0px"
	 width="115px" height="115px" viewBox="0 0 115 115" enable-background="new 0 0 115 115" xml:space="preserve">
<g>
	<g>
		<g>
			<path fill="#FFFFFF" d="M111.711,15.722c-1.691-1.695-4.437-1.698-6.128-0.007L53.588,67.571l-18.76-20.374
				c-1.621-1.76-4.363-1.873-6.125-0.253c-1.762,1.621-1.875,4.363-0.253,6.124l21.815,23.692c0.799,0.867,1.917,1.374,3.097,1.397
				c0.031,0.002,0.061,0.002,0.092,0.002c1.146,0,2.248-0.456,3.06-1.265l55.189-55.044
				C113.399,20.161,113.402,17.416,111.711,15.722z"/>
		</g>
	</g>
	<g>
		<g>
			<path fill="#B2368C" d="M110.665,53.166c-2.395,0-4.333,1.94-4.333,4.334c0,26.928-21.904,48.832-48.832,48.832
				c-26.925,0-48.832-21.904-48.832-48.832c0-26.925,21.906-48.832,48.832-48.832c2.394,0,4.335-1.94,4.335-4.334S59.894,0,57.5,0
				C25.794,0,0,25.794,0,57.5C0,89.204,25.794,115,57.5,115c31.704,0,57.5-25.796,57.5-57.5
				C115,55.106,113.059,53.166,110.665,53.166z"/>
		</g>
	</g>
</g>
</svg>
